<svg width="1280" height="720" xmlns="http://www.w3.org/2000/svg" xmlns:xlink="http://www.w3.org/1999/xlink" overflow="hidden"><g><rect x="0" y="0" width="1280" height="720" fill="#FFFFFF"/><text fill="#262626" font-family="Cavolini,Cavolini_MSFontService,sans-serif" font-weight="700" font-size="27" transform="translate(337.353 240)">Disha</text><text fill="#262626" font-family="Calibri,Calibri_MSFontService,sans-serif" font-weight="700" font-size="21" transform="translate(424.853 240)">Solutions</text><path d="M324.929 227.876 324.949 222.801 329.992 223.379Z" stroke="#172C51" stroke-width="1.33333" stroke-miterlimit="8" fill="#C00000" fill-rule="evenodd"/><path d="M314.5 209.5 341.5 209.5 338.215 213.515 318.253 213.515 318.253 237.914 314.5 242.5Z" stroke="#548235" stroke-width="1.33333" stroke-miterlimit="8" fill="#027878" fill-rule="evenodd"/><path d="M320.5 217.5 335.5 217.5 332.352 221.068 324.068 221.068 324.068 230.457 320.5 234.5Z" stroke="#172C51" stroke-width="1.33333" stroke-miterlimit="8" fill="#843C0C" fill-rule="evenodd"/><path d="M4-2.16353e-05 4.0001 19.4103-3.99989 19.4103-4 2.16353e-05ZM8.0001 19.4102 0.000169893 31.4103-7.99989 19.4103 4.0081e-05 7.41029Z" fill="#F4B183" transform="matrix(1 0 0 -1 309 243.41)"/><path d="M326.5 201.5 326.5 206.25 312.25 206.25 312.25 223.5 307.5 223.5 307.5 201.5Z" stroke="#C55A11" stroke-width="1.33333" stroke-miterlimit="8" fill="#ED7D31" fill-rule="evenodd"/></g></svg>